<svg width="205" height="56" viewBox="0 0 205 56" fill="none" xmlns="http://www.w3.org/2000/svg">
<path d="M1.51887 36H204.019L202.5 40H0L1.51887 36Z" fill="url(#paint0_linear_90_24)"/>
<path d="M162.5 36C162.5 38.7614 152.761 39.5259 150 39.5259C147.239 39.5259 134.5 36 137 36C138.5 36 145 35 149.5 35C154 35 158.5 36 162.5 36Z" fill="url(#paint1_linear_90_24)"/>
<path d="M162.5 40C162 38 153.261 37.0215 150.5 37.0215C147.739 37.0215 134.5 40 137 40C138.5 40 145 41.0215 149.5 41.0215C154 41.0215 158.5 40 162.5 40Z" fill="url(#paint2_linear_90_24)"/>
<path d="M60.012 48.457L57.8049 55H56.8674L55.4124 50.791L53.9573 55H53.0198L50.842 48.457H52.385L53.5959 52.5879L54.9729 48.457H55.8811L57.2385 52.5879L58.469 48.457H60.012Z" fill="white"/>
<path d="M70.9268 48.3105C71.3956 48.3105 71.835 48.3952 72.2452 48.5645C72.6553 48.7272 73.0167 48.9616 73.3292 49.2676C73.6482 49.5671 73.8956 49.9251 74.0713 50.3418C74.2536 50.7585 74.3448 51.2207 74.3448 51.7285C74.3448 52.2363 74.2536 52.6986 74.0713 53.1152C73.8956 53.5319 73.6482 53.8932 73.3292 54.1992C73.0167 54.4987 72.6553 54.7331 72.2452 54.9023C71.835 55.0651 71.3956 55.1465 70.9268 55.1465C70.4581 55.1465 70.0153 55.0651 69.5987 54.9023C69.1885 54.7331 68.8239 54.4987 68.5049 54.1992C68.1924 53.8932 67.945 53.5319 67.7627 53.1152C67.587 52.6986 67.4991 52.2363 67.4991 51.7285C67.4991 51.2207 67.587 50.7585 67.7627 50.3418C67.945 49.9251 68.1924 49.5671 68.5049 49.2676C68.8239 48.9616 69.1885 48.7272 69.5987 48.5645C70.0153 48.3952 70.4581 48.3105 70.9268 48.3105ZM70.9268 49.5898C70.5362 49.5898 70.1846 49.6842 69.8721 49.873C69.5661 50.0618 69.3252 50.3158 69.1495 50.6348C68.9737 50.9538 68.8858 51.3184 68.8858 51.7285C68.8858 52.1322 68.9737 52.4967 69.1495 52.8223C69.3252 53.1413 69.5661 53.3952 69.8721 53.584C70.1846 53.7663 70.5362 53.8574 70.9268 53.8574C71.3174 53.8574 71.6657 53.7663 71.9717 53.584C72.2777 53.3952 72.5186 53.1413 72.6944 52.8223C72.8702 52.4967 72.9581 52.1322 72.9581 51.7285C72.9581 51.3184 72.8702 50.9538 72.6944 50.6348C72.5186 50.3158 72.2777 50.0618 71.9717 49.873C71.6657 49.6842 71.3174 49.5898 70.9268 49.5898Z" fill="white"/>
<path d="M85.367 48.457C85.673 48.457 85.9725 48.4993 86.2655 48.584C86.5584 48.6686 86.8221 48.7988 87.0565 48.9746C87.2974 49.1504 87.4862 49.3717 87.6229 49.6387C87.7661 49.8991 87.8377 50.2116 87.8377 50.5762C87.8377 50.9603 87.7401 51.2923 87.5448 51.5723C87.356 51.8457 87.1053 52.0605 86.7928 52.2168C86.4803 52.3665 86.1418 52.4544 85.7772 52.4805L88.1307 55H86.3436L84.0682 52.3242V55H82.7108V48.457H85.367ZM84.0682 49.7266V51.377C84.2245 51.429 84.397 51.4714 84.5858 51.5039C84.7811 51.5299 84.9764 51.543 85.1717 51.543C85.5624 51.543 85.8716 51.4648 86.0995 51.3086C86.3338 51.1458 86.451 50.918 86.451 50.625C86.451 50.306 86.3273 50.0781 86.0799 49.9414C85.839 49.7982 85.5428 49.7266 85.1913 49.7266H84.0682Z" fill="white"/>
<path d="M97.5416 48.457V51.3867L100.032 48.457H101.751L99.1823 51.3184L102.044 55H100.266L98.2545 52.3535L97.5416 53.1543V55H96.1842V48.457H97.5416Z" fill="white"/>
<path d="M111.904 48.3301C112.281 48.3301 112.626 48.3822 112.939 48.4863C113.251 48.5905 113.515 48.7109 113.73 48.8477V50.1855C113.496 50.0423 113.245 49.9089 112.978 49.7852C112.711 49.6615 112.408 49.5996 112.07 49.5996C111.901 49.5996 111.731 49.6257 111.562 49.6777C111.399 49.7298 111.262 49.8079 111.152 49.9121C111.048 50.0163 110.996 50.1497 110.996 50.3125C110.996 50.5273 111.09 50.6901 111.279 50.8008C111.468 50.9115 111.699 51.0221 111.972 51.1328L112.773 51.4648C113.229 51.6602 113.564 51.8978 113.779 52.1777C113.994 52.4577 114.101 52.7767 114.101 53.1348C114.101 53.5254 113.987 53.8704 113.759 54.1699C113.538 54.4629 113.238 54.694 112.861 54.8633C112.49 55.0326 112.076 55.1172 111.621 55.1172C111.236 55.1172 110.869 55.0521 110.517 54.9219C110.165 54.7917 109.859 54.6322 109.599 54.4434V53.1055C109.886 53.3138 110.201 53.4896 110.546 53.6328C110.891 53.776 111.259 53.8477 111.65 53.8477C111.923 53.8477 112.158 53.7956 112.353 53.6914C112.548 53.5807 112.646 53.418 112.646 53.2031C112.646 53.0339 112.565 52.8971 112.402 52.793C112.246 52.6823 112.073 52.5911 111.884 52.5195L110.878 52.1289C110.371 51.9336 110.026 51.6797 109.843 51.3672C109.667 51.0482 109.58 50.6966 109.58 50.3125C109.58 49.9154 109.687 49.5703 109.902 49.2773C110.123 48.9779 110.41 48.7467 110.761 48.584C111.113 48.4147 111.494 48.3301 111.904 48.3301Z" fill="white"/>
<path d="M123.776 48.457V51.123H126.813V48.457H128.16V55H126.813V52.3438H123.776V55H122.418V48.457H123.776Z" fill="white"/>
<path d="M139.954 48.3105C140.423 48.3105 140.862 48.3952 141.273 48.5645C141.683 48.7272 142.044 48.9616 142.356 49.2676C142.676 49.5671 142.923 49.9251 143.099 50.3418C143.281 50.7585 143.372 51.2207 143.372 51.7285C143.372 52.2363 143.281 52.6986 143.099 53.1152C142.923 53.5319 142.676 53.8932 142.356 54.1992C142.044 54.4987 141.683 54.7331 141.273 54.9023C140.862 55.0651 140.423 55.1465 139.954 55.1465C139.485 55.1465 139.043 55.0651 138.626 54.9023C138.216 54.7331 137.851 54.4987 137.532 54.1992C137.22 53.8932 136.972 53.5319 136.79 53.1152C136.614 52.6986 136.526 52.2363 136.526 51.7285C136.526 51.2207 136.614 50.7585 136.79 50.3418C136.972 49.9251 137.22 49.5671 137.532 49.2676C137.851 48.9616 138.216 48.7272 138.626 48.5645C139.043 48.3952 139.485 48.3105 139.954 48.3105ZM139.954 49.5898C139.564 49.5898 139.212 49.6842 138.899 49.873C138.593 50.0618 138.353 50.3158 138.177 50.6348C138.001 50.9538 137.913 51.3184 137.913 51.7285C137.913 52.1322 138.001 52.4967 138.177 52.8223C138.353 53.1413 138.593 53.3952 138.899 53.584C139.212 53.7663 139.564 53.8574 139.954 53.8574C140.345 53.8574 140.693 53.7663 140.999 53.584C141.305 53.3952 141.546 53.1413 141.722 52.8223C141.898 52.4967 141.985 52.1322 141.985 51.7285C141.985 51.3184 141.898 50.9538 141.722 50.6348C141.546 50.3158 141.305 50.0618 140.999 49.873C140.693 49.6842 140.345 49.5898 139.954 49.5898Z" fill="white"/>
<path d="M154.394 48.457C154.7 48.457 155 48.5091 155.293 48.6133C155.586 48.7174 155.849 48.8704 156.084 49.0723C156.325 49.2741 156.514 49.5182 156.65 49.8047C156.793 50.0846 156.865 50.4069 156.865 50.7715C156.865 51.2142 156.751 51.6081 156.523 51.9531C156.302 52.2917 156.006 52.5586 155.635 52.7539C155.264 52.9492 154.86 53.0469 154.424 53.0469C154.131 53.0469 153.867 53.0176 153.633 52.959C153.398 52.9004 153.203 52.832 153.047 52.7539V55H151.689V48.457H154.394ZM153.047 49.7266V51.6602C153.19 51.7188 153.362 51.7708 153.564 51.8164C153.773 51.8555 153.984 51.875 154.199 51.875C154.59 51.875 154.899 51.7676 155.127 51.5527C155.361 51.3314 155.478 51.071 155.478 50.7715C155.478 50.4264 155.348 50.166 155.088 49.9902C154.827 49.8145 154.521 49.7266 154.17 49.7266H153.047Z" fill="white"/>
<path d="M20.1061 1.29199L31.9889 27H25.7809L23.8385 22.2393H13.7457L11.8033 27H5.59534L17.4781 1.29199H20.1061ZM18.8112 9.9375L15.6119 17.7451H22.0104L18.8112 9.9375Z" fill="white"/>
<path d="M43.4223 1.48242V12.9082L53.1342 1.48242H59.8373L49.8207 12.6416L60.9799 27H54.0483L46.2026 16.6787L43.4223 19.8018V27H38.1283V1.48242H43.4223Z" fill="white"/>
<path d="M74.2795 0.987305C75.7522 0.987305 77.0979 1.19043 78.3166 1.59668C79.5354 2.00293 80.5637 2.47266 81.4016 3.00586V8.22363C80.4875 7.66504 79.51 7.14453 78.469 6.66211C77.428 6.17969 76.2473 5.93848 74.927 5.93848C74.2668 5.93848 73.6067 6.04004 72.9465 6.24316C72.3117 6.44629 71.7785 6.75098 71.3469 7.15723C70.9407 7.56348 70.7375 8.08398 70.7375 8.71875C70.7375 9.55664 71.1057 10.1914 71.842 10.623C72.5783 11.0547 73.4797 11.4863 74.5461 11.918L77.6692 13.2129C79.4465 13.9746 80.7541 14.9014 81.592 15.9932C82.4299 17.085 82.8489 18.3291 82.8489 19.7256C82.8489 21.249 82.4045 22.5947 81.5158 23.7627C80.6526 24.9053 79.4846 25.8066 78.0119 26.4668C76.5647 27.127 74.9524 27.457 73.175 27.457C71.677 27.457 70.2424 27.2031 68.8713 26.6953C67.5002 26.1875 66.3069 25.5654 65.2912 24.8291V19.6113C66.4084 20.4238 67.6399 21.1094 68.9856 21.668C70.3313 22.2266 71.7658 22.5059 73.2893 22.5059C74.3557 22.5059 75.2698 22.3027 76.0315 21.8965C76.7932 21.4648 77.174 20.8301 77.174 19.9922C77.174 19.332 76.8567 18.7988 76.2219 18.3926C75.6125 17.9609 74.9397 17.6055 74.2033 17.3262L70.2805 15.8027C68.3 15.041 66.9543 14.0508 66.2434 12.832C65.5578 11.5879 65.2151 10.2168 65.2151 8.71875C65.2151 7.16992 65.634 5.82422 66.4719 4.68164C67.3352 3.51367 68.4524 2.6123 69.8235 1.97754C71.1946 1.31738 72.6799 0.987305 74.2795 0.987305Z" fill="white"/>
<path d="M106.698 11.8418V16.1455H95.4248V22.3154H108.184V27H90.1309V1.48242H108.184V6.05273H95.4248V11.8418H106.698Z" fill="white"/>
<path d="M139.307 1.48242V27.1904H137.403L122.283 11.6133V27H116.989V1.29199H118.893L134.014 17.0977V1.48242H139.307Z" fill="white"/>
<path d="M160.148 0.911133C161.976 0.911133 163.69 1.24121 165.29 1.90137C166.889 2.53613 168.298 3.4502 169.517 4.64355C170.761 5.81152 171.726 7.20801 172.412 8.83301C173.123 10.458 173.478 12.2607 173.478 14.2412C173.478 16.2217 173.123 18.0244 172.412 19.6494C171.726 21.2744 170.761 22.6836 169.517 23.877C168.298 25.0449 166.889 25.959 165.29 26.6191C163.69 27.2539 161.976 27.5713 160.148 27.5713C158.32 27.5713 156.593 27.2539 154.968 26.6191C153.369 25.959 151.947 25.0449 150.703 23.877C149.484 22.6836 148.519 21.2744 147.808 19.6494C147.123 18.0244 146.78 16.2217 146.78 14.2412C146.78 12.2607 147.123 10.458 147.808 8.83301C148.519 7.20801 149.484 5.81152 150.703 4.64355C151.947 3.4502 153.369 2.53613 154.968 1.90137C156.593 1.24121 158.32 0.911133 160.148 0.911133ZM160.148 5.90039C158.625 5.90039 157.254 6.26855 156.035 7.00488C154.841 7.74121 153.902 8.73145 153.216 9.97559C152.531 11.2197 152.188 12.6416 152.188 14.2412C152.188 15.8154 152.531 17.2373 153.216 18.5068C153.902 19.751 154.841 20.7412 156.035 21.4775C157.254 22.1885 158.625 22.5439 160.148 22.5439C161.672 22.5439 163.03 22.1885 164.223 21.4775C165.417 20.7412 166.356 19.751 167.042 18.5068C167.727 17.2373 168.07 15.8154 168.07 14.2412C168.07 12.6416 167.727 11.2197 167.042 9.97559C166.356 8.73145 165.417 7.74121 164.223 7.00488C163.03 6.26855 161.672 5.90039 160.148 5.90039Z" fill="white"/>
<path d="M203.155 1.48242L191.272 27.1904H188.644L176.761 1.48242H182.969L189.939 18.3545L196.947 1.48242H203.155Z" fill="white"/>
<path d="M164 18C164 21.3137 161.314 24 158 24C154.686 24 152 21.3137 152 18C152 14.6863 154.686 12 158 12C161.314 12 164 14.6863 164 18Z" fill="white"/>
<path d="M160 18.5C160 19.8807 158.881 21 157.5 21C156.119 21 155 19.8807 155 18.5C155 17.1193 156.119 16 157.5 16C158.881 16 160 17.1193 160 18.5Z" fill="black"/>
<path d="M155 18.5L154 24L159 20.5L157 19.5L155 18.5Z" fill="black"/>
<defs>
<linearGradient id="paint0_linear_90_24" x1="131.5" y1="39" x2="199.5" y2="49.5" gradientUnits="userSpaceOnUse">
<stop offset="0.308295" stop-color="white"/>
<stop offset="0.506656" stop-color="#0094FF"/>
<stop offset="0.6629" stop-color="#6B00D6"/>
<stop offset="0.832008" stop-color="#FF0000"/>
<stop offset="1" stop-color="#FFF500"/>
</linearGradient>
<linearGradient id="paint1_linear_90_24" x1="131.5" y1="39" x2="199.5" y2="49.5" gradientUnits="userSpaceOnUse">
<stop offset="0.308295" stop-color="white"/>
<stop offset="0.506656" stop-color="#0094FF"/>
<stop offset="0.6629" stop-color="#6B00D6"/>
<stop offset="0.832008" stop-color="#FF0000"/>
<stop offset="1" stop-color="#FFF500"/>
</linearGradient>
<linearGradient id="paint2_linear_90_24" x1="131.5" y1="39" x2="199.5" y2="49.5" gradientUnits="userSpaceOnUse">
<stop offset="0.308295" stop-color="white"/>
<stop offset="0.506656" stop-color="#0094FF"/>
<stop offset="0.6629" stop-color="#6B00D6"/>
<stop offset="0.832008" stop-color="#FF0000"/>
<stop offset="1" stop-color="#FFF500"/>
</linearGradient>
</defs>
</svg>
